<svg width="85" height="23" viewBox="0 0 85 23" fill="none" xmlns="http://www.w3.org/2000/svg">
<path d="M24.01 11.62L29.62 0.399999L34.45 2.89L24.46 22.6H24.22L17.71 10.15L11.14 22.6H10.9L0.85 3.07L5.92 0.399999L11.65 11.62L17.68 0.399999H17.92L24.01 11.62ZM38.2059 22H29.9559V21.76L33.9459 15.4H34.1859L38.2059 21.76V22ZM46.2965 22H40.7465V0.999999H46.2965V22ZM57.1023 22H48.8523V21.76L52.8423 15.4H53.0823L57.1023 21.76V22ZM65.4895 22H59.9395V6.1H54.2395V0.999999H71.1895V6.1H65.4895V22ZM76.5848 22H68.3348V21.76L72.3248 15.4H72.5648L76.5848 21.76V22ZM84.6754 22H79.1254V0.999999H84.6754V22Z" fill="#D6D6D6" fill-opacity="0.7" style="fill:#D6D6D6;fill:color(display-p3 0.8392 0.8392 0.8392);fill-opacity:0.7;"/>
</svg>
